<?xml version="1.0" standalone="no"?>
<!DOCTYPE svg PUBLIC "-//W3C//DTD SVG 20010904//EN"
 "http://www.w3.org/TR/2001/REC-SVG-20010904/DTD/svg10.dtd">
<svg version="1.0" xmlns="http://www.w3.org/2000/svg"
 width="260.000000pt" height="260.000000pt" viewBox="0 0 260.000000 260.000000"
 preserveAspectRatio="xMidYMid meet">
<metadata>
Created by potrace 1.11, written by Peter Selinger 2001-2013
</metadata>
<g transform="translate(0.000000,260.000000) scale(0.100000,-0.100000)"
fill="#000000" stroke="none">
<path d="M2143 2376 c-86 -40 -161 -101 -313 -255 -259 -261 -568 -665 -957
-1247 l-114 -171 -127 -12 c-263 -24 -336 -64 -459 -251 -110 -167 -125 -218
-68 -240 34 -13 71 -4 210 50 175 68 205 74 369 67 159 -7 314 -36 696 -132
271 -68 370 -79 423 -46 35 21 281 290 273 298 -2 2 -55 15 -117 28 -63 13
-197 46 -299 75 -290 81 -459 120 -600 138 l-131 17 88 130 c181 265 520 724
684 925 136 167 300 330 332 330 59 0 42 -43 -143 -350 -133 -221 -176 -304
-214 -408 -47 -132 -44 -232 6 -232 60 0 214 122 332 263 l49 58 -23 25 -24
24 116 228 c223 437 272 615 187 686 -40 34 -105 35 -176 2z"/>
</g>
</svg>
